Poster: 
http://imgr.us/images/qi1h7sbt9d3dg8j1vek.jpg


Info:

Format : MPEG-PS
File size : 1 400 MiB
Duration : 2h 15 min
Overall bit rate mode : Variable
Overall bit rate : 1 482 Kbps

Video
ID : 224 (0xE0)
Format : MPEG Video
Format version : Version 2
Format profile : Main@Main
Format settings, BVOP : Yes
Format settings, Matrix : Default
Format settings, GOP : M=3, N=13
Duration : 1h 36mn
Bit rate mode : Variable
Bit rate : 1 260 Kbps
Maximum bit rate : 9 608 Kbps
Width : 720 pixels
Height : 480 pixels
Display aspect ratio : 16:9
Frame rate : 29.970 fps
Standard : NTSC
Color space : YUV
Chroma subsampling : 4:2:0
Bit depth : 8 bits
Scan type : Progressive
Compression mode : Lossy
Bits/(Pixel*Frame) : 0.122
Stream size : 871 MiB (85%)

Audio
ID : 189 (0xBD)-128 (0x80)
Format : AC-3
Format/Info : Audio Coding 3
Mode extension : CM (complete main)
Format settings, Endianness : Big
Muxing mode : DVD-Video
Duration : 1h 36mn
Bit rate mode : Constant
Bit rate : 192 Kbps
Channel(s) : 2 channels
Channel positions : Front: L R
Sampling rate : 48.0 KHz
Bit depth : 16 bits
Compression mode : Lossy
Stream size : 133 MiB (13%)


SCREENS: 
http://imgr.us/images/g5o625uelna6vgxjcs.png 
http://imgr.us/images/ua9ta1g7xl627719o8r0.png 
http://imgr.us/images/kssfev2wjjby1qbx6b.png 
http://imgr.us/images/9j7j1sl5teb0jmrt4on.png 
http://imgr.us/images/5aua1uom4y11t8li161r.png 
http://imgr.us/images/fv0h37q3oyeuc44nwhpp.png








